Coordinates
version=1
nRows=10
nColumns=33
inDegrees=yes

Units are S.I. units (second, meters, Newtons, ...)
Angles are in degrees.

endheader
time	ground_thorax_rot_x	ground_thorax_rot_y	ground_thorax_rot_z	ground_thorax_tx	ground_thorax_ty	ground_thorax_tz	clav_prot_r	clav_elev_r	scapula_abduction_r	scapula_elevation_r	scapula_upward_rot_r	scapula_winging_r	shoulder_elv_r	plane_of_elev_r	axial_rot_r	elbow_flexion_r	pro_sup_r	wrist_flex_r	wrist_dev_r	clav_prot_l	clav_elev_l	scapula_abduction_l	scapula_elevation_l	scapula_upward_rot_l	scapula_winging_l	shoulder_elv_l	plane_of_elev_l	axial_rot_l	elbow_flexion_l	pro_sup_l	wrist_flex_l	wrist_dev_l
      0.77000000	     -0.93625116	     -2.13246911	      1.56079081	     -0.16067762	      0.98357462	     -0.01269279	      1.33388175	     -7.84189090	      4.59015060	      2.02477908	     -4.75975314	     -0.73244485	     45.08839706	      1.37693498	      4.97128174	     35.54646243	     -7.35993759	    -11.30032618	     14.23697400	      2.82356391	     -9.92355091	     -8.22928641	      0.37863368	     -6.48207741	      0.27052320	     48.72981128	     -3.66996365	      3.66252028	     36.68700733	      8.00237556	     23.49400471	     17.70366981
      0.78000000	     -1.00695095	     -2.07390671	      1.57912870	     -0.16036662	      0.98452270	     -0.01293464	      1.60407474	     -8.31194257	      5.19673292	      1.50600720	     -4.53358594	     -0.80161667	     45.00503819	      1.96952823	      4.84098174	     33.10560254	     -6.97926471	    -11.63420397	     14.27424050	      3.17240649	    -10.34161506	     -8.93619705	      0.83487033	     -6.27419879	      0.37053978	     48.91579909	     -3.33964989	      3.51030178	     34.68603014	      8.29615936	     23.41619452	     17.96540771
      0.79000000	     -0.96432231	     -2.02032947	      1.56599241	     -0.16019768	      0.98379102	     -0.01288063	      1.74522581	     -7.67841657	      5.47203907	      1.98348063	     -4.27769424	     -1.11154971	     44.32133186	      3.91868368	      3.57540356	     29.99377071	     -5.67121845	    -11.18634567	     14.98496722	      3.83306184	     -9.87980899	     -9.96601046	      0.30576785	     -6.51599135	      0.90496735	     48.72202944	     -1.77198067	      4.58119863	     32.62576860	      8.56311649	     22.75542958	     17.66095516
      0.80000000	     -1.00731352	     -1.98953952	      1.28168119	     -0.15994947	      0.98407300	     -0.01295313	      1.98022392	     -7.78797268	      6.01357047	      1.75864610	     -3.96291774	     -1.28500104	     44.19941637	      4.96917352	      3.21858392	     27.62904523	     -4.60510973	    -10.93041100	     15.29986281	      4.36550841	     -9.91508423	    -10.90262245	      0.34308408	     -6.47908020	      1.23967486	     48.91415669	     -0.99851827	      5.00327501	     31.11011030	      9.04268962	     22.26307492	     17.59034954
      0.81000000	     -1.07369944	     -1.90556404	      1.37332787	     -0.15968390	      0.98478808	     -0.01300585	      2.19994251	     -7.99132026	      6.47470500	      1.51666394	     -3.81688347	     -1.38412073	     44.07467960	      5.45697331	      3.23067012	     25.80252105	     -4.16063529	    -11.04538845	     15.33929593	      4.65578228	    -10.14566273	    -11.46025261	      0.59530707	     -6.35671393	      1.36698472	     48.99606998	     -0.63720507	      5.03271540	     29.52792529	      9.42723065	     22.06755351	     17.78838094
      0.82000000	     -1.01282821	     -1.90469659	      1.35391044	     -0.15936762	      0.98538894	     -0.01313013	      2.37629858	     -8.17328485	      6.89922423	      1.24850498	     -3.55673820	     -1.48899444	     44.04373525	      5.98827643	      3.23747793	     24.00886587	     -3.80239939	    -11.17484926	     15.31122090	      4.91307395	    -10.27898036	    -11.91688563	      0.71754726	     -6.34174519	      1.48994057	     48.98711653	     -0.17797401	      5.10821249	     28.33576100	      9.76971443	     21.84677111	     17.94295236
      0.83000000	     -1.06368881	     -1.82837597	      1.22886135	     -0.15905821	      0.98579250	     -0.01316785	      2.55705152	     -8.22244271	      7.30739197	      1.11482062	     -3.32977344	     -1.62936509	     43.91944829	      6.64391539	      3.29192140	     22.31894303	     -3.42599092	    -11.23062763	     15.27674168	      5.13473245	    -10.31662559	    -12.31128533	      0.76075403	     -6.30866623	      1.62696573	     49.06698137	      0.40451319	      5.34201668	     27.34611285	     10.15651773	     21.50323551	     18.05695313
      0.84000000	     -0.98834377	     -1.81843857	      1.16823616	     -0.15875566	      0.98460795	     -0.01299037	      2.64732839	     -7.31520318	      7.43347012	      1.87775079	     -3.17559772	     -1.97269586	     43.45312273	      8.31590311	      3.17451754	     20.49118478	     -2.39726096	    -10.25463392	     15.28010675	      5.51541154	     -9.69062197	    -12.72986610	     -0.04658444	     -6.90391381	      1.99500722	     48.97700333	      2.00242455	      6.85526903	     26.68269483	     11.41038993	     19.93006809	     17.82943354
      0.85000000	     -1.00910715	     -1.68544102	      1.16138866	     -0.15853346	      0.98528176	     -0.01301806	      2.76032983	     -7.47872939	      7.68076138	      1.69749606	     -3.09360404	     -2.01262197	     43.49432736	      8.49972441	      3.16918589	     19.57571846	     -2.15086227	    -10.27973549	     15.25966944	      5.66430957	     -9.89343663	    -13.02214869	      0.16276039	     -6.83197907	      2.03749384	     49.06106552	      2.15781164	      6.86929586	     26.03160425	     11.72916862	     19.75238441	     17.89427665
      0.86000000	     -1.07171305	     -1.61922408	      1.00058057	     -0.15831601	      0.98560227	     -0.01297817	      2.84563561	     -7.54122737	      7.89361661	      1.58317011	     -2.94769029	     -2.07942560	     43.46916874	      8.91395642	      3.14565385	     18.67569996	     -1.80891100	    -10.25620334	     15.23300688	      5.78307120	     -9.94022772	    -13.23088529	      0.20510666	     -6.82697239	      2.10191708	     49.23099096	      2.43942245	      7.11759454	     25.74890003	     12.13089097	     19.38291096	     17.86789172
